<!-- icon666.com - MILLIONS vector ICONS FREE --><svg viewBox="0 0 512 512" xmlns="http://www.w3.org/2000/svg" xmlns:xlink="http://www.w3.org/1999/xlink"><linearGradient id="linear-gradient" gradientUnits="userSpaceOnUse" x2="512" y1="271.98" y2="271.98"><stop offset="0" stop-color="#6588fc"></stop><stop offset="1" stop-color="#206ad6"></stop></linearGradient><linearGradient id="linear-gradient-2" x2="512" xlink:href="#linear-gradient" y1="110.48" y2="110.48"></linearGradient><linearGradient id="linear-gradient-3" gradientUnits="userSpaceOnUse" x1="68.91" x2="68.91" y2="80.1"><stop offset="0" stop-color="#164c8e"></stop><stop offset="1" stop-color="#2d344c"></stop></linearGradient><linearGradient id="linear-gradient-4" x1="193.64" x2="193.64" xlink:href="#linear-gradient-3" y2="80.1"></linearGradient><linearGradient id="linear-gradient-5" x1="318.36" x2="318.36" xlink:href="#linear-gradient-3" y2="80.1"></linearGradient><linearGradient id="linear-gradient-6" x1="443.09" x2="443.09" xlink:href="#linear-gradient-3" y2="80.1"></linearGradient><linearGradient id="linear-gradient-7" x1="98.21" x2="411.79" xlink:href="#linear-gradient" y1="335.8" y2="335.8"></linearGradient><g id="Layer_2" data-name="Layer 2"><g id="Layer_1-2" data-name="Layer 1"><g id="_14" data-name="14"><g id="Base"><path d="m55.18 32h401.3a55.52 55.52 0 0 1 55.52 55.48v369.34a55.18 55.18 0 0 1 -55.18 55.18h-401.64a55.18 55.18 0 0 1 -55.18-55.18v-369.67a55.18 55.18 0 0 1 55.18-55.15z" fill="url(#linear-gradient)"></path><path d="m55.41 32h401.12a55.47 55.47 0 0 1 55.47 55.44v335.56a55.41 55.41 0 0 1 -55.41 55.41h-401.18a55.41 55.41 0 0 1 -55.41-55.41v-335.62a55.41 55.41 0 0 1 55.41-55.38z" fill="#edf5ff"></path><path d="m512 189v-101.51a55.52 55.52 0 0 0 -55.52-55.49h-401a55.52 55.52 0 0 0 -55.48 55.49v101.51z" fill="url(#linear-gradient-2)"></path><circle cx="68.91" cy="72.56" fill="#edf5ff" r="17.7"></circle><rect fill="url(#linear-gradient-3)" height="80.1" rx="8.38" width="22.34" x="57.74"></rect><circle cx="193.64" cy="72.56" fill="#edf5ff" r="17.7"></circle><rect fill="url(#linear-gradient-4)" height="80.1" rx="8.38" width="22.34" x="182.47"></rect><circle cx="318.36" cy="72.56" fill="#edf5ff" r="17.7"></circle><rect fill="url(#linear-gradient-5)" height="80.1" rx="8.38" width="22.34" x="307.19"></rect><circle cx="443.09" cy="72.56" fill="#edf5ff" r="17.7"></circle><rect fill="url(#linear-gradient-6)" height="80.1" rx="8.38" width="22.34" x="431.92"></rect><path id="Dec" d="m215.05 115.59h-16.51v53.54h16.51a17.66 17.66 0 0 0 13.86-6.23q5.49-6.24 5.48-16.09v-8.81q0-9.82-5.48-16.09a17.6 17.6 0 0 0 -13.86-6.32zm8.95 31.22a19.24 19.24 0 0 1 -2.46 10.26q-2.46 4-6.47 4h-6.14v-37.36h6.14q4 0 6.47 4a19 19 0 0 1 2.46 10.16zm65.58-21.06a6.63 6.63 0 0 1 5.84-2.81q4.28 0 6.09 2.06c1.21 1.37 1.82 3.78 1.82 7.21h10.08l.07-.22q.15-8.64-4.56-12.91t-13.5-4.27q-8.34 0-13.25 5.15t-4.91 14.49v15.89q0 9.38 5.07 14.47t13.67 5.09q8.42 0 13-4.28t4.4-12.89l-.08-.22h-10q0 5.22-1.69 7.26t-5.55 2a7.38 7.38 0 0 1 -6.38-2.77c-1.39-1.88-2.09-4.76-2.09-8.66v-16q0-5.77 1.95-8.59zm-37.58 19.73h16.37v-8.09h-16.37v-13.68h19.53v-8.12h-29.9v53.54h30v-8.13h-19.63z" fill="#fff"></path></g><path d="m327.17 446.32a10 10 0 0 1 -10-10v-34.1h-85.17a10 10 0 0 1 -10-10v-34.16a10.11 10.11 0 0 1 1.12-4.6l63.39-122.46a10 10 0 0 1 8.88-5.4h49a10 10 0 0 1 8.93 14.52l-31.27 61.79a10 10 0 0 1 5.12-1.41h47.32a10 10 0 0 1 10 10v33h17.3a10 10 0 0 1 10 10v38.78a10 10 0 0 1 -10 10h-17.3v34.1a10 10 0 0 1 -10 10zm-10-102.88v-31.93l-16.17 31.93zm-171.86 102.88a10 10 0 0 1 -10-10v-150h-27.1a10 10 0 0 1 -10-10v-41a10 10 0 0 1 10-10h88.06a10 10 0 0 1 10 10v201a10 10 0 0 1 -10 10z" fill="url(#linear-gradient-7)"></path><path d="m108.21 276.3h37.1v160h51v-201h-88.1zm266.28 77.14v-43h-47.32v43h-42.42l59.64-117.88h-49l-63.39 122.5v34.16h95.2v44.1h47.32v-44.1h27.3v-38.78z" fill="#edf5ff"></path></g></g></g></svg>