<?xml version="1.0" ?><svg fill="none" height="96" viewBox="0 0 96 96" width="96" xmlns="http://www.w3.org/2000/svg"><path d="M24.3556 83.7913C13.9557 74.8561 29.6168 43.959 37.7432 35.433C43.4982 31.5963 54.2623 33.8344 58.9249 35.433C78.7478 53.3376 79.25 78.625 73.3142 83.7913C67.0648 89.2307 31 89.5 24.3556 83.7913Z" fill="#F91F1F"/><path clip-rule="evenodd" d="M36.2954 34.0531C36.3973 33.9462 36.5108 33.8509 36.6337 33.7689C40.0781 31.4727 44.7678 31.1113 48.8834 31.3996C53.0765 31.6934 57.1049 32.6947 59.5736 33.5411C59.8294 33.6288 60.0648 33.7675 60.2655 33.9488C70.5225 43.2132 75.8009 54.4056 77.7394 63.9926C78.7077 68.7811 78.8526 73.2171 78.3379 76.8539C77.8367 80.3953 76.6565 83.5337 74.6273 85.2999C73.5409 86.2455 71.9879 86.9454 70.3045 87.49C68.5782 88.0486 66.5235 88.5031 64.2795 88.8635C59.7884 89.5849 54.3792 89.9547 48.9894 89.9718C43.5998 89.9889 38.1636 89.6535 33.6196 88.9404C31.3489 88.584 29.2611 88.1273 27.4954 87.5564C25.7669 86.9976 24.1807 86.2778 23.0522 85.3083C19.7856 82.5018 18.7772 78.1523 18.9181 73.6029C19.0601 69.0173 20.3716 63.8249 22.2242 58.7704C25.9172 48.6945 31.9872 38.5732 36.2954 34.0531ZM58.9249 35.433C78.7478 53.3376 79.25 78.625 73.3142 83.7913C67.0648 89.2307 31 89.5 24.3556 83.7913C13.9557 74.8561 29.6168 43.959 37.7432 35.433C43.4982 31.5963 54.2623 33.8344 58.9249 35.433Z" fill="#890E0E" fill-rule="evenodd"/><path d="M20.9535 72.8754C21.1797 76.1861 22.2163 78.9533 24.3556 80.7913C31 86.5 67.0648 86.2307 73.3143 80.7913C75.1613 79.1837 76.385 75.6278 76.5971 70.9524C76.8591 77.0929 75.5388 81.8552 73.3143 83.7913C67.0648 89.2307 31 89.5 24.3556 83.7913C21.5975 81.4217 20.6723 77.5074 20.9535 72.8754Z" fill="#D91F1F"/><path d="M63.4154 86.9742C68.0391 86.2732 71.6872 85.2075 73.3143 83.7913C79.25 78.625 78.7478 53.3376 58.9249 35.433C56.4618 34.5885 52.296 33.5656 48.0655 33.354C49.9707 33.8545 51.6449 34.4223 52.8887 34.9222C72.53 54.6069 71.6863 80.9234 65.2363 85.9739C64.7684 86.3402 64.1547 86.6734 63.4154 86.9742Z" fill="#D91F1F"/><path d="M68.6292 65.1522C68.6292 65.7437 68.1497 66.2231 67.5583 66.2231C66.9668 66.2231 66.4874 65.7437 66.4874 65.1522C66.4874 64.5608 66.9668 64.0813 67.5583 64.0813C68.1497 64.0813 68.6292 64.5608 68.6292 65.1522Z" fill="#AB1B1B"/><path d="M72.9664 67.6689C72.9664 68.4673 72.3191 69.1146 71.5207 69.1146C70.7222 69.1146 70.075 68.4673 70.075 67.6689C70.075 66.8704 70.7222 66.2231 71.5207 66.2231C72.3191 66.2231 72.9664 66.8704 72.9664 67.6689Z" fill="#AB1B1B"/><path d="M72.2435 62.9703C72.2435 63.5691 71.7581 64.0546 71.1592 64.0546C70.5604 64.0546 70.075 63.5691 70.075 62.9703C70.075 62.3714 70.5604 61.886 71.1592 61.886C71.7581 61.886 72.2435 62.3714 72.2435 62.9703Z" fill="#AB1B1B"/><path d="M73.125 73.8801C73.125 75.1222 72.1181 76.129 70.8761 76.129C69.6341 76.129 68.6272 75.1222 68.6272 73.8801C68.6272 72.6381 69.6341 71.6312 70.8761 71.6312C72.1181 71.6312 73.125 72.6381 73.125 73.8801Z" fill="#AB1B1B"/><path d="M68.6292 69.8374C68.6292 70.6359 67.982 71.2832 67.1835 71.2832C66.3851 71.2832 65.7378 70.6359 65.7378 69.8374C65.7378 69.039 66.3851 68.3917 67.1835 68.3917C67.982 68.3917 68.6292 69.039 68.6292 69.8374Z" fill="#AB1B1B"/><path d="M69.3123 78.5654C69.3123 79.0497 68.9196 79.4424 68.4353 79.4424C67.9509 79.4424 67.5583 79.0497 67.5583 78.5654C67.5583 78.081 67.9509 77.6884 68.4353 77.6884C68.9196 77.6884 69.3123 78.081 69.3123 78.5654Z" fill="#AB1B1B"/><path d="M66.2712 81.3229C66.2712 82.1214 65.6239 82.7686 64.8255 82.7686C64.027 82.7686 63.3798 82.1214 63.3798 81.3229C63.3798 80.5245 64.027 79.8772 64.8255 79.8772C65.6239 79.8772 66.2712 80.5245 66.2712 81.3229Z" fill="#AB1B1B"/><path d="M66.4874 76.3968C66.4874 77.1952 65.8401 77.8425 65.0417 77.8425C64.2432 77.8425 63.5959 77.1952 63.5959 76.3968C63.5959 75.5983 64.2432 74.951 65.0417 74.951C65.8401 74.951 66.4874 75.5983 66.4874 76.3968Z" fill="#AB1B1B"/><path d="M61.1864 83.2907C61.1864 83.8895 60.701 84.375 60.1021 84.375C59.5033 84.375 59.0178 83.8895 59.0178 83.2907C59.0178 82.6919 59.5033 82.2064 60.1021 82.2064C60.701 82.2064 61.1864 82.6919 61.1864 83.2907Z" fill="#AB1B1B"/><path d="M43.1875 63C41.0074 71.5644 34.1476 73.7658 30 72.7501C26.9375 72.0001 22.9961 64.8569 26.2959 57.0329C29.5958 49.2089 33.1709 44.7204 39.7595 45.1164C45.0535 45.4345 44.9489 56.0802 43.1875 63Z" fill="#FD5252"/><path clip-rule="evenodd" d="M35.3669 49.668C36.1026 50.4919 36.031 51.7562 35.207 52.4919C34.5933 53.0399 33.8051 54.1318 33.089 55.5164C32.3847 56.8784 31.8589 58.3131 31.6545 59.4243C31.4547 60.5106 30.4121 61.2293 29.3258 61.0295C28.2394 60.8297 27.5207 59.7871 27.7205 58.7008C28.0162 57.0932 28.7091 55.2779 29.536 53.679C30.3512 52.1026 31.4067 50.5227 32.543 49.5081C33.3669 48.7725 34.6312 48.844 35.3669 49.668Z" fill="#FFA7A7" fill-rule="evenodd"/><path d="M57.7757 36.6321C63.211 34.7138 67.2342 25.1753 68.5664 20.6459C69.3657 15.0507 65.7688 13.8517 63.7705 14.2514C61.7723 14.651 58.9747 15.0507 58.1754 14.2514C57.3761 13.452 52.5802 9.85515 49.7826 13.8517C47.5445 17.0489 44.0542 17.3154 42.5888 17.049C40.1909 16.5161 35.4749 16.4095 35.7947 20.2462C36.1144 24.0829 33.5299 25.0421 32.1978 25.0421C30.3327 24.7757 26.8424 24.9622 27.8016 27.8397C28.7607 30.7172 35.395 34.9003 38.5923 36.6321C44.3473 33.1151 53.7792 35.1667 57.7757 36.6321Z" fill="#F91F1F"/><path clip-rule="evenodd" d="M70.4851 21.2102C70.5123 21.1179 70.5327 21.0239 70.5463 20.9287C71.0093 17.6875 70.2429 15.2407 68.5594 13.7175C66.9634 12.2734 64.8888 11.9881 63.3783 12.2902L63.7705 14.2513C65.7688 13.8517 69.3657 15.0507 68.5664 20.6459C67.2342 25.1753 63.211 34.7137 57.7757 36.6321C53.7792 35.1667 44.3473 33.1151 38.5923 36.6321C35.395 34.9002 28.7607 30.7172 27.8016 27.8397C26.8424 24.9621 30.3327 24.7756 32.1978 25.0421C33.5299 25.0421 36.1144 24.0829 35.7947 20.2462C35.4749 16.4095 40.1909 16.5161 42.5888 17.049C44.0542 17.3154 47.5445 17.0489 49.7826 13.8517C52.5802 9.85511 57.3761 13.452 58.1754 14.2513C58.9747 15.0506 61.7723 14.651 63.7705 14.2513L63.3783 12.2902C62.4091 12.484 61.3263 12.6604 60.4282 12.7032C59.9758 12.7247 59.6474 12.708 59.4395 12.6728C59.4294 12.671 59.4199 12.6693 59.411 12.6677C58.716 12.0368 57.1624 10.9008 55.3084 10.339C54.2621 10.0219 52.9921 9.84892 51.6801 10.1745C50.3208 10.5119 49.0992 11.3403 48.1441 12.7047C46.5022 15.0504 43.9504 15.2498 42.977 15.0865C41.6223 14.7911 39.5105 14.5789 37.6539 15.0774C36.6923 15.3356 35.634 15.8298 34.8481 16.7722C34.0244 17.76 33.6853 19.0174 33.8016 20.4123C33.9195 21.8277 33.5027 22.3865 33.2528 22.6191C32.9592 22.8925 32.5668 23.0135 32.2956 23.0375C31.2246 22.9047 29.6019 22.8733 28.2328 23.3913C27.4765 23.6775 26.584 24.215 26.0543 25.2147C25.5049 26.2516 25.5469 27.4004 25.9042 28.4721C26.291 29.6326 27.1478 30.699 28.0137 31.5832C28.9198 32.5084 30.028 33.4243 31.1631 34.2696C33.4355 35.9617 35.9783 37.4907 37.6397 38.3907C38.2666 38.7302 39.0268 38.7104 39.6352 38.3386C41.9887 36.9004 45.2855 36.5137 48.7004 36.7586C52.0689 37.0001 55.2424 37.8334 57.0872 38.5098C57.5239 38.6699 58.0027 38.6729 58.4414 38.5181C61.8819 37.3037 64.5544 33.8702 66.4395 30.622C68.3866 27.2671 69.7832 23.5968 70.4851 21.2102ZM59.3085 12.6422C59.3082 12.6424 59.3135 12.6446 59.3255 12.6481C59.3148 12.6437 59.3088 12.642 59.3085 12.6422Z" fill="#890E0E" fill-rule="evenodd"/><path clip-rule="evenodd" d="M33.5528 26.1055C34.0468 25.8586 34.6474 26.0588 34.8944 26.5528C35.103 26.9698 35.5588 27.6617 36.1125 28.4C36.6602 29.1302 37.2534 29.8392 37.7071 30.2929C38.0976 30.6834 38.0976 31.3166 37.7071 31.7071C37.3166 32.0976 36.6834 32.0976 36.2929 31.7071C35.7466 31.1607 35.0898 30.3698 34.5125 29.6C33.9412 28.8383 33.397 28.0301 33.1056 27.4472C32.8586 26.9532 33.0588 26.3525 33.5528 26.1055Z" fill="#FE5252" fill-rule="evenodd"/><path clip-rule="evenodd" d="M44.8356 18.0135C45.3804 17.9227 45.8956 18.2907 45.9864 18.8355C46.2269 20.2788 46.7418 22.3472 47.3117 24.2573C47.8917 26.2015 48.4881 27.8419 48.8672 28.5018C49.1422 28.9808 48.977 29.592 48.4981 29.8671C48.0192 30.1421 47.4079 29.9769 47.1329 29.498C46.6209 28.6067 45.9674 26.7471 45.3951 24.8291C44.8128 22.877 44.2731 20.7211 44.0136 19.1643C43.9228 18.6195 44.2908 18.1043 44.8356 18.0135Z" fill="#FE5252" fill-rule="evenodd"/><path clip-rule="evenodd" d="M58.2425 15.5298C58.7783 15.6637 59.1041 16.2067 58.9701 16.7424C57.9967 20.6361 57.5 27.0482 57.5 29.9999C57.5 30.5522 57.0523 30.9999 56.5 30.9999C55.9477 30.9999 55.5 30.5522 55.5 29.9999C55.5 26.9516 56.0033 20.3637 57.0299 16.2574C57.1638 15.7216 57.7067 15.3958 58.2425 15.5298Z" fill="#FE5252" fill-rule="evenodd"/><path d="M51.875 45C51.875 51.0751 50.7837 56 49.4375 56C48.0913 56 47 51.0751 47 45C47 38.9249 48.0913 34 49.4375 34C50.7837 34 51.875 38.9249 51.875 45Z" fill="#B81212"/><path d="M42.6606 42.8355C41.2677 47.4873 39.11 50.9504 37.8413 50.5706C36.5726 50.1907 36.6733 46.1116 38.0663 41.4598C39.4592 36.8079 41.6169 33.3448 42.8856 33.7247C44.1542 34.1046 44.0535 38.1836 42.6606 42.8355Z" fill="#B81212"/><path d="M54.8294 28.9122C54.8982 33.1481 54.2647 36.5933 53.4145 36.6071C52.5643 36.6209 51.8193 33.1982 51.7505 28.9622C51.6816 24.7262 52.3151 21.281 53.1653 21.2672C54.0155 21.2534 54.7606 24.6762 54.8294 28.9122Z" fill="#B81212"/><path d="M43.9512 29.0573C45.9944 32.7686 47.0469 36.1096 46.302 36.5197C45.5571 36.9298 43.2968 34.2537 41.2536 30.5424C39.2104 26.8311 38.1579 23.4901 38.9028 23.08C39.6477 22.6699 41.908 25.346 43.9512 29.0573Z" fill="#B81212"/><path d="M62.6115 29.7501C60.7401 33.5509 58.6046 36.3276 57.8417 35.9519C57.0788 35.5763 57.9775 32.1907 59.8489 28.3899C61.7204 24.5891 63.8559 21.8124 64.6188 22.1881C65.3817 22.5637 64.483 25.9493 62.6115 29.7501Z" fill="#B81212"/><path d="M60.2307 42.1306C61.4828 46.8223 61.4606 50.9025 60.1811 51.244C58.9015 51.5855 56.8492 48.059 55.597 43.3673C54.3448 38.6756 54.3671 34.5954 55.6466 34.2539C56.9262 33.9124 58.9785 37.4389 60.2307 42.1306Z" fill="#B81212"/><path d="M37.4755 33.5613C33.5601 35.0673 32 39.4143 32 41.1712C32.8785 40.1672 37.5047 37.552 46.5404 36.9496C55.5761 36.3472 62.743 38.7821 64.5 40.288C63.8976 37.2762 63.0461 34.6767 60.3197 33.5613C53.6935 30.8506 40.9684 32.2179 37.4755 33.5613Z" fill="#18BC8B"/><path clip-rule="evenodd" d="M31.2966 43.0434C30.5166 42.7503 30 42.0044 30 41.1712C30 39.8554 30.5312 37.982 31.5458 36.2579C32.5858 34.4903 34.2668 32.6526 36.7576 31.6946M37.4755 33.5613L36.7576 31.6946C38.8166 30.9027 43.1366 30.2158 47.6458 30.0425C52.1598 29.869 57.3534 30.187 61.077 31.7102C64.8679 33.2611 65.8634 36.9072 66.4611 39.8958C66.6284 40.7323 66.2467 41.5828 65.5106 42.0139C64.7745 42.4449 63.846 42.3617 63.1984 41.8065C63.0028 41.6389 62.4599 41.3012 61.4705 40.8993C60.5231 40.5145 59.2839 40.1179 57.8018 39.7774C54.8381 39.0964 50.9833 38.6578 46.6734 38.9451C42.3228 39.2352 39.0902 40.0062 36.8832 40.7935C35.7781 41.1877 34.9424 41.5816 34.3579 41.9127C33.7416 42.262 33.5137 42.48 33.5054 42.4879C33.5053 42.4881 33.5052 42.4882 33.5052 42.4882C32.9565 43.1152 32.0766 43.3364 31.2966 43.0434M37.4755 33.5613C35.1031 34.4738 33.5954 36.4293 32.7755 38.2197C32.2423 39.3842 32 40.4788 32 41.1712C32.3083 40.8188 33.0783 40.268 34.3385 39.6753C36.669 38.5794 40.676 37.3405 46.5404 36.9496C53.2666 36.5012 58.9573 37.7358 62.1516 39.0174C63.2484 39.4575 64.0509 39.9031 64.5 40.288C64.3062 39.3195 64.0868 38.3936 63.7875 37.546C63.1561 35.7578 62.1694 34.318 60.3197 33.5613C53.6935 30.8506 40.9684 32.2179 37.4755 33.5613Z" fill="#065940" fill-rule="evenodd"/><path clip-rule="evenodd" d="M32.3511 39.3063C32.1119 40.0441 32 40.7006 32 41.1712C32.8785 40.1672 37.5047 37.552 46.5404 36.9496C47.015 36.9179 47.4845 36.8947 47.9484 36.8792C46.5962 36.834 45.1799 36.8518 43.7143 36.9495C38.5011 37.2971 34.7557 38.3147 32.3511 39.3063ZM61.3136 38.7031C60.7029 36.3858 59.7277 34.4753 57.4936 33.5613C55.0388 32.5571 51.747 32.1125 48.3976 32.0191C52.6526 31.9066 57.1736 32.2743 60.3197 33.5613C63.0461 34.6767 63.8976 37.2762 64.5 40.288C63.9433 39.8109 62.8437 39.2406 61.3136 38.7031Z" fill="#0F956D" fill-rule="evenodd"/><path clip-rule="evenodd" d="M48.4854 35.2826C44.1086 35.2826 39.3222 36.507 37.4973 37.1153C36.9734 37.29 36.4071 37.0068 36.2324 36.4829C36.0578 35.9589 36.3409 35.3926 36.8649 35.218C38.8081 34.5702 43.8188 33.2826 48.4854 33.2826C49.0377 33.2826 49.4854 33.7303 49.4854 34.2826C49.4854 34.8349 49.0377 35.2826 48.4854 35.2826Z" fill="#38EFB8" fill-rule="evenodd"/></svg>